<svg width="512" height="512" viewBox="0 0 512 512" fill="none" xmlns="http://www.w3.org/2000/svg">
  <defs>
    <linearGradient id="bg" x1="64" y1="48" x2="448" y2="464" gradientUnits="userSpaceOnUse">
      <stop stop-color="#C62828"/>
      <stop offset="1" stop-color="#7F1D1D"/>
    </linearGradient>
    <linearGradient id="shield" x1="256" y1="96" x2="256" y2="400" gradientUnits="userSpaceOnUse">
      <stop stop-color="#E5E7EB"/>
      <stop offset="1" stop-color="#9CA3AF"/>
    </linearGradient>
    <filter id="shadow" x="0" y="0" width="512" height="512" filterUnits="userSpaceOnUse" color-interpolation-filters="sRGB">
      <feDropShadow dx="0" dy="10" stdDeviation="16" flood-color="#000000" flood-opacity="0.25"/>
    </filter>
  </defs>

  <rect x="32" y="32" width="448" height="448" rx="112" fill="url(#bg)"/>

  <g filter="url(#shadow)">
    <path d="M256 92L365 132V232C365 308 317 370 256 400C195 370 147 308 147 232V132L256 92Z" fill="url(#shield)"/>
    <path d="M256 118L341 149V227C341 289 304 340 256 367C208 340 171 289 171 227V149L256 118Z" fill="#1F2937" fill-opacity="0.14"/>
  </g>

  <g filter="url(#shadow)">
    <path d="M256 162C212 162 176 198 176 242C176 315 256 368 256 368C256 368 336 315 336 242C336 198 300 162 256 162Z" fill="#22C55E"/>
    <path d="M255 201L270 231L303 236L279 259L285 292L255 276L225 292L231 259L207 236L240 231L255 201Z" fill="#F9FAFB"/>
  </g>

  <path d="M128 120L157 91L278 212L249 241L128 120Z" fill="#F3F4F6"/>
  <path d="M116 132L145 103L128 86L99 115L116 132Z" fill="#111827"/>
  <path d="M261 224L294 191L327 224L294 257L261 224Z" fill="#38BDF8"/>
  <path d="M294 257L322 229L363 270L335 298L294 257Z" fill="#E5E7EB"/>
  <rect x="328" y="292" width="18" height="72" rx="9" transform="rotate(-45 328 292)" fill="#8B5E3C"/>

  <path d="M115 367C149 338 183 326 221 326" stroke="#FCA5A5" stroke-width="20" stroke-linecap="round"/>
  <path d="M102 346L132 346L132 376" stroke="#FCA5A5" stroke-width="20" stroke-linecap="round" stroke-linejoin="round"/>
</svg>
